# xmcd
#
# Track frame offsets:
#	150
#	17200
#	32382
#
# Disc length: 673 seconds
#
# Revision: 0
# Processed by: cddbd v1.4PL0 Copyright (c) Steve Scherf et al.
# Submitted via: EasyCDDAExtractor 4.6.9.1
#
DISCID=17029f03
DTITLE=Anastacia - I'm Outta Love US Promo Single
DYEAR=1900
DGENRE=
TTITLE0=I'm Outta Love(Radio Edit)
TTITLE1=I'm Outta Love(2001 Mix)
TTITLE2=I'm Outta Love(Hex Hector Radio Edit)
EXTD=
EXTT0=
EXTT1=
EXTT2=
PLAYORDER=
